<?xml version="1.0" encoding="utf-8"?>
<!-- Generator: Adobe Illustrator 25.2.3, SVG Export Plug-In . SVG Version: 6.00 Build 0)  -->
<svg version="1.1" id="Ebene_1" xmlns="http://www.w3.org/2000/svg" xmlns:xlink="http://www.w3.org/1999/xlink" x="0px" y="0px"
	 viewBox="0 0 150 48" style="enable-background:new 0 0 150 48;" xml:space="preserve">
<g>
	<g>
		<polygon points="66.1,33.8 64.4,33.8 60.9,40 60.9,33.8 59.3,33.8 59.3,46.7 60.9,46.7 60.9,42.8 62.4,40.2 64.6,46.7 66.4,46.7 
			63.4,38.4 		"/>
		<path d="M40.8,41.5c0,0.4,0,0.9,0,1.4c-0.2-0.6-0.4-1.2-0.6-1.8l-2.6-7.3h-1l0,0l0,0h-1.1v13H37V36.1c0.2,0.6,0.4,1.2,0.6,1.8
			l3.2,8.8h1.6v-13h-1.5v7.8H40.8z"/>
		<polygon points="23.5,40.8 26.8,40.8 26.8,39.3 23.5,39.3 23.5,35.3 27.9,35.3 27.9,33.8 21.9,33.8 21.9,46.7 28.1,46.7 
			28.1,45.2 23.5,45.2 		"/>
		<rect x="30.6" y="33.8" width="1.6" height="13"/>
		<path d="M19.2,37.3c0-2.3-1.4-3.5-4.2-3.5h-2.5v13h1.6v-6h0.3c0.4,0,0.8,0,1.2,0l1.9,6h1.8l-2.1-6.4
			C18.5,39.9,19.2,38.8,19.2,37.3z M17.5,37.3c0,1.4-0.8,2-2.4,2h-0.9v-4.1H15C16.7,35.2,17.5,35.9,17.5,37.3z"/>
		<polygon points="47.1,40.8 50.3,40.8 50.3,39.3 47.1,39.3 47.1,35.3 51.5,35.3 51.5,33.8 45.5,33.8 45.5,46.7 51.7,46.7 
			51.7,45.2 47.1,45.2 		"/>
		<path d="M118.3,42.7c0,1.8-0.6,2.8-1.7,2.8c-1.6,0-2.3-1.5-2.3-5.2s0.6-5.3,2.1-5.3c1.3,0,1.7,1.5,1.7,2.7v0.2h1.6v-0.2
			c0-2.6-1.3-4.1-3.3-4.1c-2.6,0-3.8,2.2-3.8,6.9c0,4.4,1.3,6.6,3.7,6.6c2.2,0,3.5-1.6,3.5-4.3v-0.4h-1.5L118.3,42.7L118.3,42.7z"/>
		<path d="M106,33.8l-2.8,13h1.6l0.7-3.7h2.9l0.7,3.7h1.7l-2.8-13H106z M108.1,41.5h-2.2l1.1-5.6L108.1,41.5z"/>
		<path d="M71.4,33.5c-1.7,0-3.6,1.2-3.6,6.7c0,5.6,2,6.7,3.6,6.7c1.7,0,3.7-1.2,3.7-6.7S73.1,33.5,71.4,33.5z M73.4,40.2
			c0,3.6-0.6,5.2-1.9,5.2c-1.4,0-1.9-1.6-1.9-5.5c0-3.4,0.6-4.9,1.9-4.9S73.4,36.6,73.4,40.2z"/>
		<polygon points="133.8,45.2 133.8,40.8 137,40.8 137,39.3 133.8,39.3 133.8,35.3 138.2,35.3 138.2,33.8 132.2,33.8 132.2,46.7 
			138.3,46.7 138.3,45.2 		"/>
		<polygon points="127.3,39.2 124,39.2 124,33.8 122.4,33.8 122.4,46.7 124,46.7 124,40.7 127.3,40.7 127.3,46.7 129,46.7 129,33.8 
			127.3,33.8 		"/>
		<path d="M99.2,39.8c-0.3-0.2-0.6-0.4-0.9-0.7c-0.5-0.4-1.1-0.8-1.5-1.2s-0.6-0.9-0.6-1.4c0-1,0.6-1.6,1.5-1.6c1,0,1.6,0.7,1.7,2.2
			v0.2h1.5v-0.2c-0.1-2.2-1.3-3.6-3.3-3.6c-1.7,0-3,1.3-3,3c0,1.8,1,2.7,2.5,3.8c1.4,1.1,2.4,1.9,2.4,3.2c0,1.2-0.7,1.9-1.7,1.9
			c-1.2,0-1.8-0.7-1.8-2.3v-0.2h-1.6v0.2c0,2.4,1.3,3.8,3.4,3.8c2,0,3.3-1.4,3.3-3.5C101.3,42,100.7,41,99.2,39.8z"/>
		<path d="M80.2,33.8h-2.3v13h1.6V41h0.7c2.8,0,4.2-1.2,4.2-3.6S83,33.8,80.2,33.8z M82.9,37.4c0,1.4-0.8,2.1-2.4,2.1h-0.9v-4.3h0.9
			C82.1,35.3,82.9,36,82.9,37.4z"/>
		<polygon points="87,46.7 88.6,46.7 88.6,40.8 91.7,40.8 91.7,39.3 88.6,39.3 88.6,35.3 92.6,35.3 92.6,33.8 87,33.8 		"/>
	</g>
	<g>
		<path d="M138.9,21.7h4.2V5.1h5.8V1.4h-15.7v3.7h5.8V21.7z M125,21.7h4.2V1.4H125V21.7z M105.9,21.7h13.8V18h-9.7v-2.9h8.1v-3.6
			h-8.1V5.1h9.2V1.4h-13.4V21.7z M86,21.7h15.2V18h-8.8l9.3-16.2V1.4H87.6v3.7h7.7L86,21.3V21.7z M61.1,21.7H65l0.5-7.1
			c0.1-1.3,0.1-3.6,0.1-3.6s1.2,2,2,3.1l3.7,4.9h0.4l3.7-4.9c0.8-1.1,1.9-3.1,1.9-3.1s0.1,2.3,0.2,3.6l0.5,7.2h4.1L80.5,1.2h-0.4
			l-7,9.6c-0.6,0.9-1.4,2.2-1.4,2.2s-0.8-1.3-1.5-2.2l-7.1-9.6h-0.4L61.1,21.7z M47.7,22c4.6,0,8.2-2.5,8.2-7.6V1.4h-4.2v12.7
			c0,2.9-1.3,4.1-4,4.1c-2.8,0-4.1-1.1-4.1-4.1V1.4h-4.2v12.9C39.5,19.5,43.1,22,47.7,22 M25.2,15.9l1.5-3.5
			c0.6-1.4,1.2-3.6,1.2-3.6s0.6,2.2,1.2,3.6l1.5,3.5H25.2z M18.9,21.7h4l1-2.3h8.2l1,2.3h4.4L28.1,1.3h-0.4L18.9,21.7z M5.6,13V5.1
			h1.3c3.3,0,4.9,1.1,4.9,4c0,2.9-1.5,3.9-4.9,3.9H5.6z M12.2,15.4c2.5-1.1,3.9-3.1,3.9-6.3c0-4.9-3.4-7.7-9.1-7.7H1.4v20.3h4.2v-5
			H7c0.4,0,0.8,0,1.2-0.1l3.3,5.1h4.8L12.2,15.4z"/>
	</g>
</g>
</svg>
