<svg xmlns="http://www.w3.org/2000/svg" viewBox="0 0 475 70" style="enable-background:new 0 0 475 70" xml:space="preserve"><path d="M35 .6c1.4.1 2.7.4 4 .7.5.1.5.3.3.7-.8 1.8-1.6 3.5-2.4 5.3-.6 1.4-.6 1.3-2.1 1.1-2.2-.4-4.5-.4-6.7-.1-4.4.7-8.3 2.4-11.7 5.4-3.7 3.3-6.2 7.3-7.2 12.2-1.5 7.3.3 13.9 5.2 19.5 1.1 1.3 2.4 2.4 3.7 3.3.4.3.4.5.2 1-.9 2-1.7 4-2.6 6-.2.4-.3.7-.8.3-5-3.5-8.9-8-11.4-13.8-1.1-2.6-1.9-5.3-2.1-8.1-.2-.6-.1-1.2-.2-1.7v-3.8c.1-.6.1-1.2.1-1.8 0-2.9.8-5.5 1.9-8.1 1.8-4.4 4.6-8.2 8.2-11.3C15.3 4 19.8 1.7 24.9.6c1-.2 2-.3 3-.2.5 0 1 0 1.6-.1h3.8c.6.2 1.2.1 1.7.3"/><path d="m1.2 27.3.2-.5c.1.6 0 1.3-.2 1.9v-1.4zM1.2 32.4c.2.6.3 1.1.2 1.7l-.2-.4v-1.3zM146.2 35.4V22c0-.4.1-.6.6-.6h6.3c.4 0 .6.1.6.6v2.5l.1.4.3-.2c1.7-1.9 3.9-3 6.3-3.6 2.2-.5 4.3-.4 6.4.4 1.7.7 2.9 2 3.6 3.7l.2.4.3-.2c2-2.6 4.6-4 7.8-4.5 2.5-.3 4.9-.1 7 1.5 1.7 1.3 2.4 3.2 2.7 5.2.1.4.1.9.1 1.4v20c0 .4-.1.6-.6.6h-6.3c-.5 0-.6-.2-.6-.6V35.6c0-1.5 0-3-.1-4.5 0-.8-.3-1.5-.7-2.1-.5-.8-1.3-1.3-2.3-1.4-2.8-.5-5.2 1-6.7 2.9l-.2.5v17.7c0 .6-.1.8-.7.8h-6.2c-.6 0-.7-.2-.7-.7V31.5c0-3.5-2.5-4.6-5.5-4-1.6.4-2.9 1.3-4 2.6-.3.3-.4.7-.4 1.2v17.6c0 .5-.2.6-.6.6h-6.2c-.5 0-.6-.1-.6-.6.1-4.5.1-9 .1-13.5M23.5 69.6h-4.1c-.4 0-.5-.1-.3-.5 2.3-5.2 4.5-10.4 6.8-15.6.5-1.1.5-1.1 1.7-.9 9.7 1.6 19-2.9 23.7-11.6 2.6-4.8 3.3-9.8 2.2-15.1-1.2-5.7-4.3-10.3-9-13.7-.3-.3-.4-.4-.2-.8.9-2.1 1.8-4.2 2.7-6.2.2-.4.4-.4.7-.2 6 3.9 10.3 9.3 12.6 16.2.9 2.7 1.4 5.4 1.4 8.2.2 7.9-2.2 14.8-7.3 20.8-3.8 4.4-8.5 7.5-14.1 9.2-2.5.8-5.1 1.2-7.7 1.3-.5 0-.6.3-.8.6-1.1 2.6-2.3 5.3-3.4 7.9-.1.3-.3.4-.7.4h-4.2M97 10.1c4.6 0 8.7 1.3 12.2 4.4 1.5 1.3 2.8 3 3.8 4.7.2.3.2.5-.2.7-2.1 1-4.2 2-6.3 3.1-.4.2-.5 0-.7-.3-1.5-2.6-3.8-4.4-6.7-4.9-4.5-.8-8.3.5-11.3 4-1.8 2.1-2.7 4.7-2.8 7.5-.2 3.4.6 6.6 2.8 9.3 1.9 2.4 4.5 3.7 7.5 4.1 2.6.3 5-.1 7.2-1.5 1.3-.9 2.5-2 3.2-3.4.3-.5.4-.6 1-.3 2 1 4 1.9 6 2.9.4.2.6.3.3.8-2 3.1-4.4 5.7-7.8 7.3-2.1 1-4.3 1.5-6.6 1.7-3.2.2-6.4-.1-9.4-1.3-6.2-2.3-10.3-6.7-12.1-13.1-.8-3.1-1-6.2-.4-9.3 1.3-7.1 5.3-12 12-14.7 2.8-1.2 5.5-1.6 8.3-1.7"/><path d="M31.4 16.8c7.3 0 13.7 5.7 13.7 13.7 0 7.8-6.3 14-14.3 13.7-7.2-.2-13.2-6.1-13.3-13.7.1-7.5 6.4-13.8 13.9-13.7M392.3 35.4V21.9c0-.5.1-.6.6-.6h6.3c.5 0 .6.1.6.6-.1.8 0 1.5-.1 2.3l.1.4.4-.2c2-2.1 4.5-3.3 7.3-3.7 2.9-.4 5.8-.2 8.3 1.7 1.5 1.1 2.2 2.7 2.6 4.5.2 1.1.3 2.2.3 3.4v18.4c0 .5-.1.7-.6.7h-6.2c-.5 0-.7-.1-.7-.6V32.1c0-.9-.2-1.8-.6-2.6-.9-1.6-2.4-2.1-4.1-2.2-2.5-.1-4.6.9-6.3 2.7-.3.3-.4.7-.4 1.2v17.7c0 .4-.2.6-.6.6h-6.3c-.5 0-.6-.2-.6-.6V35.4M231.2 35.6v-7.2c0-.5-.2-.5-.6-.5h-3.4c-.5 0-.6-.1-.6-.6v-5.2c0-.5.2-.6.6-.6h3.4c.4 0 .6-.1.6-.6v-6.5c0-.5.2-.6.6-.6h6.4c.4 0 .6.1.6.5v6.5c0 .4.1.6.6.6h4.6c.4 0 .6.1.6.6v5.3c0 .5-.1.6-.6.6h-4.6c-.4 0-.5.1-.5.5v12.2c0 .8.2 1.5.7 2.2.9 1.1 2.3 1 3.8.3.5-.2.7-.3.8.3.4 1.5.8 3 1.2 4.4.1.4 0 .7-.3.9-1 .7-2.2 1.1-3.4 1.3-2.2.3-4.4.3-6.5-.6-2.2-1-3.3-2.7-3.7-5-.4-2.5-.1-5.1-.2-7.7-.2-.4-.2-.8-.1-1.1zM373.9 35.6v-7.2c0-.4-.1-.6-.6-.6h-3.5c-.5 0-.6-.1-.6-.6V22c0-.5.1-.7.6-.7h3.4c.5 0 .6-.2.6-.6v-6.5c0-.5.2-.6.6-.5h6.4c.4 0 .6.1.6.6v6.5c0 .4.1.6.6.6h4.6c.5 0 .6.1.6.6v5.3c0 .5-.1.6-.6.6H382c-.4 0-.6.1-.6.6v12.1c0 .5.1 1 .3 1.5.4 1.1 1.5 1.7 2.7 1.5.6-.1 1.2-.2 1.7-.6.3-.2.5-.1.6.2.4 1.5.8 3 1.3 4.5.2.5 0 .8-.4 1-.9.6-1.9 1-3 1.1-2.1.3-4.2.4-6.2-.3-2.4-.8-3.7-2.6-4.2-5-.2-.9-.2-1.8-.2-2.7-.1-2.1-.1-4.1-.1-6.2zM117.5 30.1V11.4c0-.5.2-.6.6-.6h6.1c.6 0 .7.2.7.7v37.3c0 .5-.2.7-.7.7H118c-.5 0-.7-.2-.7-.7.2-6.2.2-12.5.2-18.7M350.4 35.4V21.9c0-.4.1-.5.5-.5h6.5c.4 0 .5.1.5.5v2.6l.1.4.4-.3c1.9-2.1 4.4-3.4 7.2-3.9h.6c.6-.1.7.1.7.7v5.8c0 .6-.1.7-.7.7-2.5-.3-4.8.3-6.8 1.7l-.5.4c-.7.5-1 1.1-.9 2v16.9c0 .5-.2.7-.7.6h-6.2c-.5 0-.7-.1-.6-.6-.1-4.5-.1-9-.1-13.5M457.5 35.4V22c0-.4.1-.5.5-.5h6.3c.4 0 .6.1.6.6 0 .8 0 1.7-.1 2.5l.1.4.4-.3c2-2.2 4.5-3.5 7.5-3.9h.4c.4 0 .5.1.5.5v6.1c0 .5-.3.5-.7.5-1.7-.2-3.4 0-5 .7-1.1.5-2.1 1.1-2.9 1.9-.2.3-.3.5-.3.9v17.3c0 .6-.1.7-.7.7H458c-.4 0-.6-.1-.6-.6.1-4.4.1-8.9.1-13.4zM139.3 35.5v13.3c0 .5-.1.7-.7.7h-6.2c-.5 0-.6-.1-.6-.6V22c0-.4.1-.5.5-.5h6.4c.5 0 .5.2.5.6.1 4.4.1 8.9.1 13.4M131.1 14.1c-.2-2.4 2.1-4.4 4.4-4.4 2.5 0 4.5 1.9 4.5 4.4 0 2.4-2 4.5-4.4 4.4-2.6 0-4.6-2.1-4.5-4.4M299.3 28.3c-2 .1-3.9 0-5.9.1h-3.1c-.5 0-.6-.2-.6-.6v-9.3c0-.4.1-.5.5-.5 3 0 5.9-.1 8.9.1 2.2.1 3.9 1.1 4.7 3.3 1.2 3.3-1 6.7-4.5 6.9m13.1-7.4c-.6-3.5-2.3-6.3-5.4-8.2-2.1-1.3-4.5-1.8-6.9-1.9h-17.9c-.5 0-.7.1-.7.7v37.4c0 .5.1.6.6.6h7.1c.4 0 .6-.1.6-.6V36.3c0-.5.2-.6.7-.6h8.9c1.7 0 3.4-.2 5.1-.7 3.2-1.1 5.6-3.1 7-6.2 1-2.6 1.3-5.2.9-7.9M336 35.5v4.3c0 .4-.1.8-.4 1.1-1.4 1.5-3.1 2.3-5.1 2.6-3.2.4-6.1-1.3-7.2-4.5-1.1-2.8-.9-5.7.6-8.3 1.4-2.5 4.4-3.7 7.2-3.1 1.8.4 3.3 1.1 4.5 2.4.3.3.5.7.5 1.2-.1 1.4-.1 2.8-.1 4.3m7.6 0V22c0-.4-.1-.6-.5-.6h-6.6c-.4 0-.5.1-.5.5v2.4l-.1.4-.3-.2c-2.2-2.6-5-3.8-8.4-3.7-4.7.1-8.3 2.3-10.4 6.5-2.3 4.4-2.3 9.1-1.1 13.9 1.3 4.9 5.1 8.6 10.6 9 3.7.2 6.8-.9 9.2-3.7l.4-.2.1.4c0 .8 0 1.5-.1 2.3 0 .5.2.6.6.6h6.3c.5 0 .6-.1.6-.6.2-4.6.2-9.1.2-13.5M214.5 40.7c-2.4 2.9-7.4 4-10.6 1.1-1.2-1.1-2-2.5-2.3-4.1-.5-2.5-.3-5 1.1-7.2 1.5-2.4 4.4-3.6 7.2-3 1.8.4 3.3 1.2 4.6 2.6.2.3.4.6.4.9v8.8c0 .4-.1.7-.4.9m7.8-5.2V22c0-.4-.1-.5-.5-.5h-6.5c-.5 0-.6.2-.5.6 0 .8 0 1.6.1 2.3l-.1.4-.3-.2c-2.2-2.6-5-3.8-8.4-3.8-4.8 0-9 2.8-10.8 7.3-1.8 4.5-1.9 9-.5 13.6 1 3.2 3 5.8 6.1 7.3 2.6 1.2 5.2 1.5 8 .9 2.2-.5 4.1-1.7 5.6-3.4l.4-.3.1.5V49c0 .4.1.6.6.6h6.3c.4 0 .6-.1.6-.6-.2-4.6-.2-9.1-.2-13.5M268 32.8h-12.5c-.5 0-.7-.2-.5-.7 1-4.2 4.4-6 8.3-5.3 3.4.6 4.9 3.2 5.2 5.4.1.5 0 .6-.5.6m7.4-.6c-.7-3.2-2.1-6.1-4.6-8.3-2.7-2.3-5.9-3.3-9.5-3.2-5.2.2-9.3 2.4-12 6.8-1.8 2.9-2.3 6.2-2 9.5.2 2 .7 3.9 1.7 5.7 2.8 5 7.3 7.1 12.8 7.3 2.2.1 4.4-.2 6.5-.9 1.9-.6 3.7-1.4 5.2-2.7.2-.2.3-.4.1-.7-.9-1.3-1.9-2.7-2.8-4.1-.2-.3-.4-.3-.7-.1-2.4 1.9-5.1 2.7-8.1 2.4-3.6-.3-6-2.3-6.9-5.8-.1-.5 0-.6.5-.6h19.6c.5 0 .6-.2.6-.6 0-1.4 0-3.1-.4-4.7M444.6 32.8H432c-.3 0-.6 0-.5-.4.5-2.2 1.6-4 3.7-5 3.1-1.5 8.2-.8 9.7 3.8.1.3.2.7.3 1.1.1.3-.1.5-.6.5m6.8-2.8c-1.1-3.2-3-5.8-6-7.5-3-1.7-6.3-2.1-9.6-1.5-4.4.7-7.8 3-10 6.9-2.2 3.9-2.5 8.1-1.2 12.4 1.6 5.2 5.3 8.2 10.5 9.4 3.3.8 6.6.5 9.9-.5 1.8-.6 3.5-1.4 5-2.6.3-.2.5-.4.2-.8-.9-1.3-1.8-2.7-2.7-4-.2-.3-.4-.4-.7-.1-2.9 2.2-6.2 3.1-9.8 2.1-2.8-.8-4.5-2.7-5.2-5.5-.1-.4 0-.6.5-.6h19.6c.4 0 .6-.1.6-.5 0-2.4-.2-4.9-1.1-7.2"/></svg>