<?xml version="1.0" encoding="utf-8"?>
<!-- Generator: Adobe Illustrator 25.2.0, SVG Export Plug-In . SVG Version: 6.00 Build 0)  -->
<svg version="1.1" id="Ebene_1" xmlns="http://www.w3.org/2000/svg" xmlns:xlink="http://www.w3.org/1999/xlink" x="0px" y="0px"
	 viewBox="0 0 100 100" style="enable-background:new 0 0 100 100;" xml:space="preserve">
<style type="text/css">
	.st0{fill:none;}
</style>
<rect class="st0" width="100" height="100"/>
<path class="st0" d="M0,0h100v100H0V0z"/>
<path d="M85,15H15c-4.8,0-8.8,4-8.8,8.8v52.5c0,4.8,4,8.8,8.8,8.8h70.1c4.8,0,8.8-4,8.8-8.8V23.8C93.7,18.9,89.8,15,85,15z
	 M80.7,76.2H19.3c-2.7,0-4.4-2.2-4.4-4.4V32.5l30.2,18.8c2.7,1.8,6.5,1.8,9.3,0L85,32.5v39.4C85,74.1,82.7,76.2,80.7,76.2z M50,45.6
	L15,23.8h70.1L50,45.6z"/>
</svg>
