<?xml version="1.0" encoding="utf-8"?>
<!-- Generator: Adobe Illustrator 25.2.0, SVG Export Plug-In . SVG Version: 6.00 Build 0)  -->
<svg version="1.1" id="Ebene_1" xmlns="http://www.w3.org/2000/svg" xmlns:xlink="http://www.w3.org/1999/xlink" x="0px" y="0px"
	 viewBox="0 0 100 100" style="enable-background:new 0 0 100 100;" xml:space="preserve">
<style type="text/css">
	.st0{fill:none;}
</style>
<rect class="st0" width="100" height="100"/>
<path class="st0" d="M0,0h100v100H0V0z"/>
<g>
	<path d="M87.8,35.1c-0.2-3.9-0.7-6.6-1.8-9.3c-1.1-2.8-2.6-5.1-4.5-6.9c-1.8-1.8-4-3.3-6.9-4.5c-2.2-0.8-4.8-1.6-9.2-1.8
		c-3.9-0.4-5.2-0.5-15.4-0.5c-10.2,0-11.5,0-15.4,0.3c-3.9,0.2-6.6,0.7-9.3,1.8c-2.8,1.1-5.1,2.6-6.9,4.5c-1.8,1.8-3.3,4-4.5,6.9
		c-0.8,2.2-1.6,4.8-1.8,9.3c0,1.5,0,2.6,0,3.9C12,41,12,43.9,12,50.2c0,10.2,0,11.5,0.3,15.4c0.2,3.9,0.7,6.6,1.8,9.3
		c1.1,2.8,2.6,5.1,4.5,6.9c1.8,1.8,4,3.3,6.9,4.5c2.2,0.8,4.8,1.6,9.3,1.8l1,0c3.4,0.2,5.1,0.3,14.5,0.3c10.2,0,11.5,0,15.4-0.3
		c3.9-0.2,6.6-0.7,9.3-1.8c5.1-1.9,9.3-6.1,11.1-11.1c0.8-2.2,1.6-4.8,1.8-9.3l0-0.9c0.2-3.4,0.3-5.1,0.3-14.5
		C88.1,40.3,88.1,39,87.8,35.1z M50,19.9c10,0,11.1,0,15.1,0.2c3.4,0.2,5.4,0.8,6.9,1.3c1.4,0.5,2.9,1.5,4.1,2.6
		c1.1,1.1,2.1,2.4,2.6,4.1c0.5,1.4,1.1,3.3,1.2,6.9C80,38.9,80,40,80,50s0,11.1-0.2,15.1c-0.2,3.4-0.7,5.4-1.1,6.8l0,0.1
		c-1.1,3-3.6,5.5-6.8,6.8c-1.4,0.5-3.3,1.1-6.9,1.2c-4,0.2-5,0.2-15.1,0.2c-10,0-11.1,0-15.1-0.2c-3.4-0.2-5.3-0.7-6.7-1.1l-0.1,0
		c-1.4-0.5-2.9-1.5-4.1-2.6c-1.3-1.3-2.1-2.6-2.6-4.1c-0.5-1.4-1.1-3.3-1.3-6.9c-0.2-4-0.2-5-0.2-15.1c0-10,0-11.1,0.2-15.1
		c0.2-3.4,0.8-5.4,1.3-6.9c0.5-1.4,1.5-2.9,2.6-4.1C25,23,26.3,22,28,21.5c1.4-0.5,3.3-1.1,6.9-1.2C38.8,19.9,40.1,19.9,50,19.9z"/>
	<path d="M50,69.8c10.9,0,19.8-8.9,19.8-19.8c0-10.9-8.9-19.7-19.8-19.7c-10.9,0-19.7,8.8-19.7,19.7C30.3,60.9,39.1,69.8,50,69.8z
		 M50,38.1c6.6,0,12,5.3,12,11.9c0,6.6-5.4,12-12,12c-6.6,0-11.9-5.3-11.9-11.9C38.1,43.5,43.4,38.1,50,38.1z"/>
	<circle cx="70" cy="30.1" r="5"/>
</g>
</svg>
