<svg xmlns="http://www.w3.org/2000/svg" viewBox="0 0 355 75" style="enable-background:new 0 0 355 75" xml:space="preserve"><path d="M7.6 3.5h-6v45.1h16.1v-5.2H7.6zM30 3.4l-9.8 45.2H26l1.7-8.8h9l1.7 8.8h6.1L34.7 3.4H30zm-1.4 31.8 3.6-23h.1l2.3 16.4 1.2 6.5h-7.2zM74.8 25.7v-.1c4.8-1.3 5.7-5.6 5.7-10 0-7.6-2.3-12.1-10.4-12.1h-7.5v45.2h7.2c8.3 0 11.4-4 11.4-12.3 0-5.1-1.2-9.1-6.4-10.7zM68.3 8.5h1c4.1-.1 5.3 3.2 5.3 6.8 0 4.8-.8 8.3-6.4 8V8.5zm0 35.1V28.1c5.5-.1 6.5 3 6.5 8s-1.3 7.7-6.5 7.5zM86.8 3.5h6v45.2h-6zM110.5 2.9c-11.6 0-11.7 15-11.7 23.2s.1 23.2 11.7 23.2 11.7-15 11.7-23.2 0-23.2-11.7-23.2zm0 40.7c-4.7 0-5.4-8-5.4-17.6s.7-17.6 5.4-17.6 5.4 8 5.4 17.6-.6 17.6-5.4 17.6zM138.8 24.2l-4.6-5c-1.2-1.6-1.7-2.9-1.7-4.9 0-3.1 2-5.8 5.3-5.8 2 0 3.5.8 5.1 1.9l.1-6.1c-1.9-1.1-4.1-1.5-6.4-1.5-6.8 0-10.1 5.2-10.1 11.6 0 11.9 12.6 13.7 12.6 22.7 0 3.4-1.6 6.3-5.3 6.3-2.3 0-4.1-1-5.9-2.3v6.1c1.9 1.5 4.3 2.2 6.6 2.2 6.6 0 10.6-5.5 10.6-11.8.1-6.3-2.3-9.3-6.3-13.4zM168.3 3.5h-19.9v5.2h7.1v39.9h6V8.7h6.8zM188.8 21.1h-9V3.5h-6v45.1h6V26.3h9v22.3h6V3.5h-6zM202 48.6h16.1v-5.2H208V28.1h9v-5.2h-9V8.7h10.1V3.5H202zM223.2 8.7h7.1v39.9h6V8.7h6.8V3.5h-19.9zM248.6 3.5h6v45.2h-6zM283.9 32.9c.2-2.5.2-4.9.2-6.9 0-8.2-.1-23.2-11.7-23.2s-11.7 15-11.7 23.2c0 2 0 4.4.2 6.9.6 7.7 2.8 16.3 11.6 16.3 2.4 0 4.4-.5 6.1-1.9l3.2 4.7 3.9-2.8-4.1-5.6c1.3-3 2-6.9 2.3-10.7zm-6.8 4.7h-.1l-2.3-3.2-3.7 2.9 3.8 5.5c-.6.7-1.4 1-2.5 1-3.5 0-4.8-4.4-5.2-10.7-.1-2.1-.2-4.5-.2-6.9 0-9.6.7-17.6 5.4-17.6s5.4 8 5.4 17.6c0 2.3-.1 4.6-.3 6.9 0 1.4-.2 3-.3 4.5zM305 37.3c-.1 3.7-.4 6.4-4.6 6.4-2.5 0-4.2-1.2-4.2-7V3.5h-6v31.2c0 8.1.8 14.6 10.4 14.6 10.4 0 10.4-7.8 10.4-13.7V3.5h-6v33.8zM318.1 48.6h16.2v-5.2h-10.2V28.1h9.1v-5.2h-9.1V8.7h10.2V3.5h-16.2zM133.2 56h-2.3v15.8h2v-6.6h1.1c3 0 5.5-1.3 5.5-4.6.1-2.9-1.4-4.6-6.3-4.6zm.3 7.4h-.6v-5.7h.5c2 0 4.3.3 4.3 2.8s-2.2 2.9-4.2 2.9zM144.3 71.8h2.1l1.8-4h7.3l1.8 4h2.1l-7.5-16.5-7.6 16.5zM149 66l2.8-6.4 2.8 6.4H149zM175.6 60.5c0-1.5-.8-3-2.1-3.8-1.3-.7-2.8-.7-4.2-.7H167v15.8h2v-6.7h.8l4.7 6.7h2.4l-5-6.9c2.2-.2 3.7-2.1 3.7-4.4zm-6 3h-.6v-5.7h.5c2 0 4.3.4 4.3 2.8 0 2.5-2.2 2.9-4.2 2.9zM184.6 56h2v15.8h-2zM201 62.5l-1.1-.4c-1-.4-2.2-1-2.2-2.3 0-1.4 1.4-2.2 2.6-2.2 1.2 0 2 .5 2.5 1.5l1.6-.9c-.9-1.5-2.3-2.4-4.1-2.4-2.4 0-4.7 1.5-4.7 4.1 0 2.2 1.6 3.2 3.4 4l1.1.5c1.4.6 2.7 1.3 2.7 3s-1.2 3.1-2.9 3.1-3.1-1.3-3.1-3l-2 .4c.3 2.5 2.3 4.4 4.9 4.4 2.8 0 5.1-2.1 5.1-4.9.2-2.8-1.5-4.1-3.8-4.9zM345.8 3c-4.2 0-7.6 3.4-7.6 7.5 0 4.2 3.4 7.6 7.6 7.6 4.2 0 7.5-3.3 7.5-7.6.1-4.2-3.3-7.5-7.5-7.5zm0 13.8c-3.6 0-6.3-2.7-6.3-6.3 0-3.5 2.8-6.3 6.3-6.3 3.6 0 6.3 2.8 6.3 6.3 0 3.6-2.7 6.3-6.3 6.3z"/><path d="M349.5 8.5c0-.7-.3-1.5-1-1.8-.6-.5-1.3-.5-2-.5h-3.7v8.5h1.2v-3.8h1.6l2.4 3.8h1.4l-2.5-3.8c1.4 0 2.6-.6 2.6-2.4zm-4.1 1.5H344V7.2h2.3c1 0 2 .1 2 1.3 0 1.6-1.7 1.5-2.9 1.5z"/></svg>