<?xml version="1.0" encoding="utf-8"?>
<!-- Generator: Adobe Illustrator 25.2.0, SVG Export Plug-In . SVG Version: 6.00 Build 0)  -->
<svg version="1.1" id="Ebene_1" xmlns="http://www.w3.org/2000/svg" xmlns:xlink="http://www.w3.org/1999/xlink" x="0px" y="0px"
	 viewBox="0 0 100 100" style="enable-background:new 0 0 100 100;" xml:space="preserve">
<style type="text/css">
	.st0{fill:none;}
</style>
<rect class="st0" width="100" height="100"/>
<path class="st0" d="M0,0h100v100H0V0z"/>
<path d="M82.2,65.1c-0.3-0.5-0.7-0.7-1.3-1c-0.5-0.3-1.1-0.6-2-0.9c-1.5-0.7-3.5-1.6-5.5-2.4c-1.5-0.7-3.7-1.5-5.7-2.2
	c-2.4-0.8-3.3-0.9-3.9-0.8c-0.5,0.3-0.8,0.5-1.6,1.1c-0.6,0.5-1.1,1-2,1.8c-1.1,1-2.4,2.4-4.1,4.2c-0.4,0.4-0.9,0.6-1.4,0.3
	c-2.9-1.4-6.9-3.5-10.7-6.5c-5-4-8.4-8.4-10.1-13.4c-0.4-1-0.1-2.2,0.7-2.8l6.5-6.3c1-0.9,1.2-2.5,0.6-3.7L33.9,19
	c-0.6-0.8-1.5-1.5-2.5-1.5c-2.1,0-5.7,0.2-8,1.9c-1,0.7-2.2,2.1-3.1,3.6c-1.2,2.1-2.1,4.4-2.6,7c-0.7,3.1-0.7,6.5,0,9.9
	c0.8,4.1,2.4,8.2,4.9,12.5c5.9,9.8,14.6,17,20.9,21.3c7.3,4.9,13.8,7.8,16.2,8.3c1.1,0.3,2.6,0.5,4.5,0.5c1.8,0,3.7-0.2,5.7-0.7
	c4.7-1,8-3.1,9.9-6.3c1.6-2.6,2.3-5,2.5-6.4C82.5,68.4,82.9,66.2,82.2,65.1z"/>
</svg>
